<svg width="44" height="44" viewBox="0 0 44 44" fill="none" xmlns="http://www.w3.org/2000/svg">
<circle cx="22" cy="22" r="22" fill="#CED4DA"/>
<path d="M31.0519 31.5391V29.1901C31.0519 27.9441 30.557 26.7492 29.6759 25.8682C28.7949 24.9871 27.6 24.4922 26.354 24.4922H16.9582C15.7122 24.4922 14.5173 24.9871 13.6362 25.8682C12.7552 26.7492 12.2603 27.9441 12.2603 29.1901V31.5391M26.354 15.0964C26.354 17.6909 24.2507 19.7943 21.6561 19.7943C19.0615 19.7943 16.9582 17.6909 16.9582 15.0964C16.9582 12.5018 19.0615 10.3984 21.6561 10.3984C24.2507 10.3984 26.354 12.5018 26.354 15.0964Z" stroke="white" stroke-width="4" stroke-linecap="round" stroke-linejoin="round"/>
</svg>
