<svg width="61" height="61" viewBox="0 0 61 61" fill="none" xmlns="http://www.w3.org/2000/svg">
<path d="M22.3306 16.2962L22.067 17.0237L22.0541 17.0436L22.0025 17.0577L21.9616 17.0226L21.7354 16.2821L21.5854 15.5967L21.439 14.6958L21.3488 13.7855L21.3125 12.8635L21.3324 11.931L21.3886 11.3628L21.5012 10.811L21.7073 10.1807L21.999 9.54919L22.3903 8.88609L22.9374 8.09296L23.3837 7.53297L23.9051 6.98117L24.5015 6.43522L25.1728 5.89749L25.4856 5.68191L25.8089 5.49916L26.1405 5.3492L26.4825 5.23321L26.9501 5.13012L27.4338 5.08443L27.8908 5.08325L28.329 5.11137L28.7507 5.16878L29.1607 5.25548L29.5707 5.37496L29.9749 5.5261L30.3861 5.71472L30.7974 5.93731L31.2403 6.17278L31.6877 6.36376L32.1213 6.50435L32.543 6.59572L32.9507 6.63556L33.3349 6.62501L33.7099 6.56175L34.0542 6.44927L34.517 6.20326L34.8638 6.00878L35.0478 5.95371L35.1801 5.95606L35.3078 5.98885L35.4391 6.0533L35.5621 6.1435L35.6898 6.27004L35.7987 6.41297L35.8912 6.57347L35.9557 6.73279L36.0341 7.04443L36.0799 7.36075L36.094 7.69932L36.0764 8.03908L36.0272 8.39639L35.9451 8.7713L35.8338 9.14501L35.6921 9.5281L35.5316 9.87607L35.3406 10.2123L35.1122 10.5474L34.8568 10.866L34.5639 11.1823L34.2499 11.4764L33.9113 11.7529L33.561 12.0001L32.9484 12.375L32.3486 12.6831L31.7768 12.9174L31.2227 13.0814L30.7001 13.1728L30.2022 13.1939L29.7196 13.1435L29.2697 13.0205L29.0236 12.9197L28.1567 12.5296L27.4034 12.225L27.3296 12.1992L27.0613 12.1395L26.7906 12.1254L26.5059 12.1559L26.226 12.2285L25.9378 12.348L25.6637 12.5062L25.4024 12.7018L25.1693 12.9268L23.2538 14.9923L22.9222 15.3625L22.6574 15.7034L22.4606 16.015L22.3306 16.2962Z" fill="#CED4DA"/>
<path d="M39.0117 10.0263L39.2261 10.4468L39.4018 10.8592L39.5366 11.2658L39.6315 11.6653L39.7346 12.3155L39.7979 12.9633L39.8213 13.6089L39.806 14.2532L39.7124 15.1823L39.6092 15.679L39.4476 16.1769L39.2203 16.6923L38.9227 17.2336L38.8782 17.2945L38.8419 17.3109L38.8161 17.2817L38.7997 17.2079L38.7282 16.7545L38.6181 16.3221L38.4729 15.9075L38.2889 15.5126L37.9656 14.9866L37.5672 14.4992L36.1379 13.0313L35.8755 12.6997L35.77 12.5146L35.6962 12.3401L35.6541 12.1819L35.6377 12.0226L35.6495 11.8808L35.6916 11.7449L35.7864 11.5926L36.0653 11.24L36.3196 10.8768L36.5515 10.5007L36.7588 10.1141L36.9814 9.62325L37.1678 9.11596L37.3188 8.59112L37.4349 8.04868L37.4629 7.98074L37.5179 7.9327L37.5882 7.91162L37.6598 7.92333L37.6902 7.93856L37.8132 8.04399L37.9386 8.20099L38.3545 8.87111L39.0117 10.0263Z" fill="#CED4DA"/>
<path d="M30.0565 17.755L29.9862 17.7643L29.9348 17.7948L29.8996 17.844L29.8844 17.9143L29.8176 18.4122L29.6969 18.8702L29.52 19.2885L29.288 19.6669L29.0561 19.9492L28.7854 20.2047L28.4773 20.4331L28.1317 20.6346L27.7827 20.7869L27.4428 20.8888L27.089 20.9521L26.7211 20.9755L26.3393 20.9602L26.0593 20.9227L25.7887 20.8619L25.5168 20.7752L25.2567 20.6663L24.8971 20.4658L24.569 20.2223L24.2762 19.9411L24.023 19.6259L23.8134 19.2814L23.6505 18.9124L23.5392 18.534L23.4784 18.1391L23.4678 17.8568L23.4842 17.5698L23.5263 17.2909L23.5954 17.011L23.6974 16.7146L23.8239 16.4369L23.9739 16.178L24.1473 15.939L24.4753 15.5957L24.8642 15.3029L25.3142 15.058L25.825 14.8636L26.1858 14.7769L26.556 14.7359L26.9403 14.7417L27.3209 14.7921L27.6948 14.8881L28.0532 15.0252L28.3883 15.2021L28.694 15.4165L29.1077 15.8137L29.5341 16.3467L29.636 16.4369L29.7672 16.4721L31.0582 16.4732L31.2538 16.4568L31.3851 16.4193L31.4367 16.383L31.4671 16.3421L31.7623 15.8653L31.9064 15.6847L32.0389 15.5559L32.5062 15.2208L32.9772 14.9713L33.4681 14.8014L33.9567 14.7195H34.4311L34.922 14.7979L35.2794 14.9034L35.618 15.0416L35.9366 15.2127L36.2306 15.4142L36.499 15.6449L36.7379 15.9027L36.9383 16.178L37.1069 16.4767L37.223 16.7486L37.3109 17.0368L37.3705 17.3272L37.401 17.6308L37.408 18.0197L37.3858 18.3583L37.3319 18.6675L37.2417 18.9628L37.0449 19.3658L36.7566 19.7653L36.3982 20.139L36.0116 20.4424L35.5886 20.6803L35.1481 20.8408L34.8084 20.9123L34.3069 20.9579L33.8324 20.9415L33.3849 20.8619L32.9631 20.7201L32.641 20.5597L32.3353 20.3592L32.0482 20.1168L31.7776 19.8345L31.5421 19.5298L31.3535 19.2159L31.2106 18.8913L31.1133 18.5562L31.0653 18.2364L31.0559 17.9072L31.0489 17.8405L31.0219 17.7936L30.9751 17.7643L30.9083 17.755H30.0565ZM28.57 18.2316L28.6028 17.8646L28.5611 17.4976L28.4465 17.1447L28.2637 16.8195L28.0194 16.5345L27.723 16.3005L27.386 16.1268L27.0215 16.0198L26.6431 15.9838L26.2658 16.0199L25.9039 16.1271L25.5711 16.301L25.2805 16.535L25.043 16.8202L24.868 17.1454L24.7621 17.4985L24.7295 17.8655L24.7711 18.2325L24.8856 18.5854L25.0686 18.9106L25.3129 19.1956L25.6092 19.4296L25.9461 19.6033L26.3108 19.7103L26.689 19.7463L27.0663 19.7102L27.4284 19.603L27.7612 19.4291L28.0518 19.1951L28.2891 18.9099L28.4641 18.5846L28.57 18.2316ZM36.1658 17.9056L36.1359 17.5375L36.033 17.1824L35.8614 16.8535L35.6274 16.5637L35.3401 16.3239L35.0104 16.1437L34.6513 16.0297L34.2762 15.9862L33.8999 16.0152L33.5367 16.1154L33.2003 16.283L32.904 16.5114L32.6592 16.792L32.4749 17.114L32.3585 17.4651L32.3145 17.8316L32.3444 18.1995L32.4473 18.5548L32.6189 18.8836L32.8529 19.1734L33.1403 19.4131L33.4699 19.5934L33.8291 19.7075L34.2041 19.7508L34.5804 19.7219L34.9438 19.6217L35.28 19.4542L35.5763 19.2258L35.8213 18.945L36.0055 18.623L36.1218 18.272L36.1658 17.9056Z" fill="#CED4DA"/>
<path d="M16.3506 39.8758L16.3846 39.8501L16.3823 39.8078L16.3717 39.7949L16.032 39.4704L15.8925 39.2912L15.7743 39.1014L15.67 38.8824L15.5891 38.6493L15.5329 38.4032L15.5001 38.1443L15.5246 37.9264L15.6173 37.5784L17.5574 31.4348L17.9463 30.3381L18.1314 29.9024L18.3118 29.5438L18.6868 28.9324L19.1448 28.3021L19.7024 27.6296L20.4745 26.7731L20.5038 26.7416L20.7123 26.5423L20.9467 26.3631L21.2149 26.198L21.5241 26.041L21.8628 25.9004L22.2365 25.7716L23.1175 25.5408L23.6471 25.474L24.7975 25.3674L25.5204 25.276L26.1272 25.1378L26.6111 24.9561L26.8044 24.8495L26.9719 24.7276L27.0632 24.689L27.1605 24.7065L27.7814 25.0088L28.4118 25.2643L29.0514 25.4751L29.7016 25.6391L30.2769 25.7457L30.8603 25.8172L31.4507 25.8535L32.0494 25.8558L32.0915 25.8722L32.1091 25.9145L32.1162 30.7635L32.0975 35.5657L32.1396 36.0097L32.2755 36.4572L32.4993 36.8884L32.7968 37.2797L33.1695 37.6335L33.5924 37.9216L34.0399 38.1278L34.5061 38.2497L34.9221 38.2708L35.8147 38.279L38.842 38.2708L38.9135 38.3024L38.9357 38.3762L38.9334 38.3891L38.5655 39.7727L38.5691 39.8302L38.6182 39.8629L38.8152 39.8968L39.0541 39.9075L41.0316 39.8922L41.1043 39.8617L41.1348 39.7891V33.1148L41.1746 33.0187L41.2707 32.9789H44.6693L44.7245 32.9964L44.7643 33.0737V39.7597L44.8052 39.8582L44.9037 39.8992L52.2938 39.8899L52.548 39.9051L52.7776 39.9519L52.9827 40.0305L53.1642 40.1417L53.3716 40.3456L53.4947 40.5202L53.5942 40.7018L53.6692 40.8868L53.7172 41.0731L53.7382 41.2524L53.7324 41.4293L53.6984 41.5992L53.6364 41.762L53.5474 41.9096L53.4302 42.0455L53.2919 42.1592L53.1279 42.2599L53.0611 42.2927L52.7097 42.4111L52.323 42.4555L50.1311 42.4837L48.7194 42.4684L48.1195 42.4451L46.1689 42.3782L44.7502 42.3583L44.462 42.3595L40.139 42.3607L38.4859 42.3829L36.226 42.4555L35.4223 42.4848L34.2917 42.4766L32.1127 42.4111L29.3291 42.3537L25.4653 42.3572L23.763 42.3642L21.42 42.4215L19.9894 42.4638H18.1431L15.7695 42.3981L12.8079 42.3512L9.31431 42.3864L8.81288 42.4238L8.53757 42.4215L8.27631 42.3724L8.02912 42.2751L7.79598 42.1299L7.63196 41.9775L7.47967 41.7421L7.38946 41.4539L7.37305 41.1434L7.42812 40.8317L7.54878 40.5378L7.73155 40.28L7.96469 40.0797L8.22359 39.9555L8.38878 39.9156L8.56568 39.9016L16.0331 39.8887L16.3506 39.8758ZM21.1435 35.6746L21.0836 35.6465L21.0661 35.5833L21.0697 35.5715L22.1357 32.4435L22.1228 32.3522L21.9295 32.1038L21.7445 31.9304L21.5687 31.8331L21.4024 31.8085L21.2899 31.8308L21.1201 31.9069L20.9923 32.003L20.8412 32.2151L20.7006 32.5806L20.6537 32.7153L19.6029 35.7086L19.4892 36.1526L19.4799 36.333L19.5033 36.4724L19.5865 36.6505L19.7036 36.7888L19.8125 36.8637L19.9391 36.9176L20.0855 36.9492L20.2495 36.9598L24.3535 36.9728L24.6839 37.0031L25.0049 37.0769L25.3106 37.1918L25.5953 37.3465L25.8448 37.5315L26.0617 37.7518L26.2338 37.9931L26.3662 38.2626L26.4412 38.5087L26.481 38.7723L26.529 39.6649L26.5431 39.741L26.5771 39.8008L26.6298 39.8441L26.7036 39.87L27.1476 39.9156L27.6702 39.8816L27.7381 39.8476L27.7721 39.7786L27.8048 39.3826L27.8025 38.9818L27.7662 38.5965L27.6924 38.218L27.5893 37.8725L27.4498 37.5433L27.2835 37.2445L27.0808 36.968L26.8863 36.7536L26.6791 36.5603L26.3979 36.3459L26.0991 36.1644L25.771 36.0074L25.4278 35.8832L25.0505 35.7836L24.6604 35.7156L24.2516 35.6758L23.8122 35.6652L21.1435 35.6746Z" fill="#CED4DA"/>
<path d="M40.8776 31.7252L40.5916 31.7721L40.3539 31.8612L40.1582 31.9983L40.0317 32.1646L39.9719 32.3308L39.9566 32.529L39.9649 32.7491L39.9684 36.9316L39.9591 37.003L39.9286 37.0546L39.877 37.0862L39.8056 37.0968L35.3924 37.1119L34.892 37.0886L34.4739 37.0078L34.1294 36.8695L33.8459 36.6656L33.7545 36.5719L33.5917 36.3611L33.4627 36.1338L33.3785 35.924L33.3187 35.7014L33.2847 35.4671L33.2754 35.2211L33.2895 27.0718L33.2882 26.9113L33.2999 26.3642L33.3644 25.9835L33.4417 25.7632L33.5413 25.5652L33.6609 25.3895L33.8026 25.2383L34.0158 25.0755L34.2642 24.9513L34.5477 24.8646L34.8663 24.8165L35.5131 24.7873L36.5345 24.7791L49.7146 24.7978H50.5441L50.9071 24.8271L51.2891 24.9314L51.6394 25.0989L51.9182 25.3086L52.0869 25.4996L52.2194 25.7093L52.2966 25.8862L52.3517 26.0749L52.3834 26.2752L52.3938 26.486L52.3774 31.6373L52.3998 35.1052L52.3762 35.5633L52.2908 35.9627L52.1443 36.3025L51.9346 36.5824L51.7049 36.7757L51.4286 36.9246L51.1649 36.9995L50.776 37.0534L50.2629 37.0874L49.6254 37.0992L46.1343 37.0909L46.078 37.0663L46.0546 37.0101L46.0523 33.3982V33.3337L46.044 32.8791L46.0054 32.5535L45.9304 32.2982L45.8157 32.1001L45.5954 31.8857L45.347 31.7592L45.1091 31.7217L42.3666 31.6924L40.8776 31.7252Z" fill="#CED4DA"/>
<path d="M4.58925 47.974L4.60331 47.899L4.64667 47.8357L4.70993 47.7924L4.7849 47.7783L7.92349 47.783L8.3183 47.8017L8.7096 47.8568L9.09387 47.9458L9.46642 48.07L9.82374 48.2258L10.1623 48.4145L10.4798 48.6323L10.7727 48.8784L11.0386 49.1491L11.273 49.443L11.4768 49.757L11.6455 50.0875L11.7779 50.4307L11.8728 50.7856L11.9302 51.1465L11.9489 51.5108V52.0403L11.9278 52.4059L11.8693 52.7668L11.7732 53.1206L11.6385 53.4638L11.4698 53.7942L11.2647 54.1071L11.0293 54.3999L10.7633 54.6693L10.4693 54.9142L10.1506 55.1322L9.81085 55.3184L9.45353 55.4742L9.07981 55.5961L8.69672 55.6851L8.30424 55.7378L7.90943 55.7542L4.77085 55.7496L4.69587 55.7343L4.63261 55.6921L4.59043 55.6277L4.5752 55.5539L4.58925 47.974ZM6.45202 49.6798L6.45905 53.9231L6.48717 54.0167L6.56098 54.0801L6.63244 54.0953L7.81219 54.0941L8.26089 54.0496L8.69203 53.9207L9.088 53.7122L9.43597 53.431L9.72065 53.089L9.93269 52.6988L10.0627 52.2771L10.1061 51.8366V51.7522L10.0616 51.3128L9.92918 50.8911L9.71713 50.501L9.4301 50.1612L9.08215 49.8812L8.68382 49.6738L8.2527 49.5462L7.80516 49.504L6.62542 49.5052L6.55864 49.5193L6.5024 49.5568L6.4649 49.613L6.45202 49.6798Z" fill="#CED4DA"/>
<path d="M34.0168 51.46L33.0995 52.9795L32.468 54.0806L32.3133 54.2892L32.1271 54.4064L32.0041 54.4333L31.6573 54.4532L31.396 54.4321L31.1911 54.363L31.0481 54.2483L31.0095 54.1931L29.5063 51.6778L29.4759 51.6533L29.4501 51.6825L29.3271 52.0774L29.2873 52.4065L29.2954 55.7278L29.2697 55.8029L29.1948 55.8274H27.8146L27.6975 55.811L27.6143 55.7606L27.5639 55.6775L27.5475 55.5615L27.5498 48.6001L27.537 48.2733L27.4971 47.9218L27.5252 47.8141L27.6226 47.759H27.6272L28.3137 47.7285L29.0119 47.7438L29.1314 47.759L29.2251 47.7953L29.3002 47.8562L29.3717 47.95L29.6024 48.3318L30.6509 50.1875L31.6679 51.9109L31.7019 51.932L31.7382 51.9192L31.7451 51.9098L34.0765 47.8714L34.1692 47.7801L34.2945 47.7461H35.739L35.8304 47.7637L35.9077 47.8152L35.9592 47.8925L35.9768 47.9827V55.6142L35.9428 55.7091L35.8573 55.7618L35.3582 55.8357L34.8615 55.8427L34.5357 55.811L34.2101 55.7513L34.134 55.7032L34.1047 55.62V51.4845L34.0825 51.3943L34.0168 51.46Z" fill="#CED4DA"/>
<path d="M39.0868 54.3117L38.5209 55.6871L38.446 55.7762L38.3334 55.8042L36.6289 55.6941H36.6254L36.6113 55.6661L37.5403 53.3171L38.4178 51.145L39.614 48.113L39.6937 47.9619L39.8026 47.8484L39.9631 47.7663L40.1623 47.7358L40.8171 47.73L41.4299 47.7476L41.5939 47.8026L41.7076 47.9338L42.0191 48.6274L42.4469 49.6759L42.8158 50.5803L43.8819 53.1097L44.818 55.42L44.9059 55.734L44.907 55.7433L44.8871 55.8067L44.8261 55.8335H43.1709L43.0876 55.8206L43.0115 55.7831L42.9505 55.7258L42.9084 55.652L42.3941 54.2895L42.3378 54.2133L42.2464 54.1876H39.2719L39.1605 54.2215L39.0868 54.3117ZM39.7324 52.565L39.7416 52.6434L39.8119 52.6809H41.6373L41.7076 52.6434L41.7169 52.565L40.8042 50.189L40.7598 50.1422L40.6918 50.1409L40.6449 50.189L39.7324 52.565Z" fill="#CED4DA"/>
<path d="M14.6563 52.6258V53.9697L14.6879 54.0446L14.7629 54.0763H18.5658L18.622 54.0997L18.6454 54.1559V55.5946L18.6139 55.6813L18.533 55.7258L17.8347 55.8055L17.0287 55.8324L12.9939 55.8289L12.9154 55.8125L12.8498 55.7679L12.8053 55.7012L12.79 55.6226V47.9478L12.8041 47.8752L12.8451 47.8132L12.9072 47.7709L12.9798 47.7568H18.4497L18.5283 47.7686L18.5845 47.8014L18.6185 47.8588L18.6303 47.9374V49.2728L18.629 49.2892L18.6091 49.3549L18.5623 49.4076L18.499 49.4369L18.4299 49.4381L18.0959 49.397L17.7317 49.3958L14.7277 49.52L14.6773 49.5424L14.6574 49.5926V50.7819L14.6962 50.8767L14.7911 50.9153H17.9718L18.0515 50.9317L18.1195 50.9763L18.1639 51.0443L18.1803 51.1239V52.4489L18.1487 52.524L18.0737 52.5543H14.7277L14.6738 52.5719L14.6563 52.6258Z" fill="#CED4DA"/>
<path d="M22.9017 53.0593L22.9579 53.1601L23.0023 53.1906L23.0351 53.1506L23.0587 53.0429L23.1031 52.8555L23.2051 52.5626L23.9573 50.5066L24.8253 48.0053L24.9014 47.8987L25.0256 47.8553L26.7654 47.7815L26.8216 47.8049L26.8415 47.8624L26.8404 47.8717L26.667 48.4539L24.0146 55.3872L24.0087 55.4036L23.8682 55.6882L23.7931 55.7703L23.6995 55.8242L23.5307 55.8383L22.7962 55.7516L22.0347 55.7118L21.9691 55.6906L21.9268 55.6355L19.0296 47.9713L19.0215 47.942L19.0238 47.8705L19.0578 47.8062L19.1152 47.7616L19.1855 47.7463H20.8339L20.9276 47.7757L20.9884 47.8541L22.6099 52.3341L22.9017 53.0593Z" fill="#CED4DA"/>
<path d="M47.9025 49.5259L47.8357 49.5564L47.8089 49.6244V55.5841L47.7913 55.7023L47.7409 55.7855L47.6553 55.8313L47.537 55.8406L46.0714 55.7457L45.9765 55.7011L45.9379 55.6028V49.656L45.8933 49.5483L45.7855 49.5037H43.876L43.7564 49.4861L43.6697 49.4346L43.6182 49.349L43.6006 49.2272V48.0006L43.6158 47.8928L43.6627 47.8154L43.74 47.7687L43.8478 47.7534H49.9902L50.0981 47.7897L50.1331 47.8963V49.3256L50.1027 49.4029L50.0265 49.4369L47.9025 49.5259Z" fill="#CED4DA"/>
<path d="M52.7328 52.6121V53.9886L52.7585 54.0506L52.8195 54.0765H56.4595L56.5684 54.0917L56.647 54.1385L56.6938 54.2171L56.709 54.326V55.63L56.6915 55.6756L56.647 55.6979L55.514 55.7787L54.3004 55.8244L52.9835 55.8397L51.1535 55.8267H51.1359L51.0141 55.808L50.9274 55.7541L50.8758 55.6674L50.8584 55.5467V47.8356L50.8829 47.7759L50.9426 47.7512H56.5076L56.5966 47.7641L56.661 47.8016L56.6986 47.8661L56.7113 47.9551V49.2778L56.6822 49.3715L56.5966 49.4149L56.2521 49.4617L55.8937 49.4827L52.7012 49.5086L52.6367 49.5297L52.6156 49.5941V50.7961L52.6496 50.8794L52.7328 50.9133H56.0706L56.115 50.9321L56.1339 50.9765V52.4492L56.1034 52.5242L56.0284 52.5547H52.7902L52.7469 52.5686L52.7328 52.6121Z" fill="#CED4DA"/>
</svg>
