<svg width="66" height="66" viewBox="0 0 66 66" fill="none" xmlns="http://www.w3.org/2000/svg">
<path d="M24.1615 17.6321L23.8763 18.4192L23.8623 18.4407L23.8065 18.456L23.7622 18.4179L23.5175 17.6168L23.3552 16.8753L23.1968 15.9005L23.0992 14.9156L23.0599 13.918L23.0815 12.909L23.1423 12.2942L23.2641 11.6972L23.487 11.0152L23.8027 10.332L24.2261 9.61455L24.818 8.75641L25.3009 8.15051L25.8651 7.55348L26.5103 6.96278L27.2366 6.38097L27.5751 6.14773L27.9249 5.94999L28.2837 5.78774L28.6537 5.66225L29.1596 5.55071L29.683 5.50127L30.1774 5.5L30.6515 5.53042L31.1079 5.59254L31.5515 5.68634L31.9951 5.81562L32.4324 5.97914L32.8773 6.18323L33.3223 6.42406L33.8014 6.67884L34.2856 6.88547L34.7547 7.03758L35.211 7.13644L35.6521 7.17954L36.0678 7.16813L36.4735 7.09968L36.8461 6.97799L37.3467 6.71181L37.722 6.50139L37.9211 6.4418L38.0643 6.44435L38.2024 6.47983L38.3444 6.54956L38.4775 6.64716L38.6157 6.78406L38.7335 6.93871L38.8336 7.11236L38.9034 7.28475L38.9882 7.62193L39.0378 7.96417L39.053 8.3305L39.034 8.69811L38.9807 9.08471L38.8919 9.49034L38.7716 9.89469L38.6182 10.3092L38.4445 10.6857L38.2379 11.0495L37.9907 11.412L37.7144 11.7568L37.3975 12.099L37.0577 12.4172L36.6915 12.7163L36.3124 12.9838L35.6496 13.3894L35.0006 13.7228L34.3819 13.9763L33.7824 14.1537L33.217 14.2526L32.6783 14.2754L32.1561 14.2209L31.6693 14.0878L31.4031 13.9788L30.4651 13.5567L29.65 13.2272L29.5702 13.1993L29.28 13.1346L28.9871 13.1194L28.679 13.1524L28.3762 13.231L28.0643 13.3603L27.7678 13.5314L27.4851 13.7431L27.2329 13.9864L25.1603 16.2212L24.8015 16.6218L24.5151 16.9906L24.3022 17.3278L24.1615 17.6321Z" fill="#706EFA"/>
<path d="M42.2092 10.848L42.4412 11.3031L42.6313 11.7493L42.7771 12.1891L42.8797 12.6214L42.9913 13.3249L43.0598 14.0258L43.0851 14.7243L43.0686 15.4215L42.9673 16.4267L42.8557 16.9641L42.6808 17.5028L42.4349 18.0605L42.1129 18.6462L42.0648 18.712L42.0255 18.7298L41.9975 18.6982L41.9798 18.6183L41.9025 18.1277L41.7834 17.6599L41.6262 17.2113L41.4271 16.784L41.0773 16.215L40.6463 15.6876L39.0998 14.0994L38.8159 13.7407L38.7018 13.5404L38.622 13.3515L38.5764 13.1804L38.5586 13.008L38.5714 12.8546L38.6169 12.7076L38.7195 12.5428L39.0213 12.1612L39.2964 11.7683L39.5474 11.3614L39.7716 10.9431L40.0125 10.412L40.2141 9.86312L40.3776 9.29525L40.5031 8.70835L40.5334 8.63484L40.593 8.58286L40.6691 8.56006L40.7465 8.57272L40.7794 8.58921L40.9125 8.70328L41.0481 8.87315L41.4981 9.59819L42.2092 10.848Z" fill="#706EFA"/>
<path d="M32.5198 19.2106L32.4437 19.2206L32.3881 19.2536L32.3501 19.3069L32.3336 19.3829L32.2613 19.9216L32.1307 20.4173L31.9393 20.8698L31.6883 21.2792L31.4374 21.5847L31.1445 21.8611L30.8112 22.1083L30.4372 22.3262L30.0595 22.4911L29.6918 22.6012L29.309 22.6697L28.911 22.695L28.4979 22.6785L28.1949 22.638L27.9021 22.5722L27.608 22.4783L27.3265 22.3605L26.9374 22.1436L26.5824 21.8801L26.2656 21.5759L25.9917 21.2349L25.765 20.8621L25.5887 20.4628L25.4683 20.0535L25.4025 19.6262L25.391 19.3207L25.4087 19.0102L25.4543 18.7085L25.5291 18.4057L25.6394 18.0849L25.7763 17.7845L25.9386 17.5043L26.1263 17.2458L26.4811 16.8743L26.9019 16.5575L27.3887 16.2926L27.9414 16.0822L28.3318 15.9883L28.7323 15.944L29.1481 15.9503L29.56 16.0048L29.9645 16.1087L30.3523 16.2571L30.7148 16.4485L31.0456 16.6804L31.4932 17.1102L31.9545 17.6869L32.0648 17.7845L32.2067 17.8225L33.6036 17.8238L33.8153 17.806L33.9573 17.7655L34.0131 17.7262L34.0459 17.6819L34.3654 17.166L34.5213 16.9706L34.6646 16.8313L35.1703 16.4687L35.6799 16.1988L36.2111 16.0149L36.7397 15.9263H37.2529L37.7841 16.0111L38.1708 16.1252L38.5371 16.2748L38.8819 16.4599L39.1999 16.6779L39.4903 16.9276L39.7488 17.2065L39.9657 17.5043L40.1481 17.8275L40.2737 18.1217L40.3687 18.4335L40.4333 18.7478L40.4663 19.0762L40.4739 19.497L40.4498 19.8633L40.3915 20.1979L40.2939 20.5174L40.081 20.9534L39.7691 21.3857L39.3813 21.7901L38.9629 22.1183L38.5053 22.3757L38.0287 22.5494L37.6612 22.6267L37.1186 22.676L36.6052 22.6583L36.121 22.5722L35.6647 22.4188L35.3161 22.2451L34.9853 22.0283L34.6747 21.766L34.3819 21.4605L34.1272 21.1308L33.9231 20.7913L33.7684 20.44L33.6631 20.0775L33.6113 19.7315L33.6011 19.3752L33.5935 19.3031L33.5643 19.2524L33.5137 19.2206L33.4414 19.2106H32.5198ZM30.9114 19.7263L30.9469 19.3292L30.9018 18.9321L30.7778 18.5502L30.58 18.1984L30.3157 17.8901L29.995 17.6369L29.6304 17.449L29.236 17.3332L28.8266 17.2942L28.4183 17.3333L28.0267 17.4493L27.6667 17.6374L27.3523 17.8906L27.0954 18.1992L26.906 18.551L26.7914 18.933L26.7561 19.3301L26.8012 19.7272L26.925 20.1091L27.123 20.4609L27.3873 20.7693L27.7079 21.0224L28.0725 21.2104L28.4671 21.3262L28.8763 21.3651L29.2845 21.326L29.6763 21.21L30.0363 21.0219L30.3507 20.7688L30.6075 20.4602L30.7969 20.1082L30.9114 19.7263ZM39.1298 19.3735L39.0975 18.9753L38.9862 18.5911L38.8005 18.2352L38.5473 17.9217L38.2365 17.6622L37.8798 17.4672L37.4911 17.3439L37.0854 17.2969L36.6782 17.3281L36.2852 17.4366L35.9213 17.6179L35.6007 17.8651L35.3358 18.1687L35.1364 18.5171L35.0105 18.8969L34.9629 19.2935L34.9952 19.6916L35.1065 20.0759L35.2922 20.4317L35.5454 20.7452L35.8564 21.0047L36.2129 21.1997L36.6016 21.3232L37.0073 21.37L37.4145 21.3387L37.8076 21.2303L38.1714 21.0491L38.492 20.8019L38.7571 20.4982L38.9563 20.1498L39.0822 19.77L39.1298 19.3735Z" fill="#706EFA"/>
<path d="M17.6904 43.1445L17.7271 43.1167L17.7246 43.071L17.7131 43.057L17.3456 42.7059L17.1947 42.512L17.0668 42.3066L16.954 42.0697L16.8665 41.8175L16.8056 41.5513L16.7701 41.2711L16.7967 41.0354L16.8969 40.6588L18.9961 34.0117L19.4169 32.8251L19.6171 32.3537L19.8123 31.9657L20.218 31.3041L20.7136 30.6221L21.3169 29.8946L22.1523 28.9679L22.184 28.9338L22.4095 28.7182L22.6631 28.5243L22.9534 28.3456L23.2879 28.1757L23.6544 28.0236L24.0587 27.8842L25.012 27.6345L25.5849 27.5622L26.8296 27.4469L27.6117 27.3481L28.2683 27.1985L28.7919 27.0019L29.001 26.8865L29.1822 26.7547L29.2811 26.7129L29.3863 26.7319L30.0581 27.0589L30.7401 27.3353L31.4322 27.5635L32.1357 27.7409L32.7582 27.8563L33.3894 27.9336L34.0282 27.9729L34.6759 27.9754L34.7215 27.9931L34.7405 28.0389L34.7482 33.2854L34.7279 38.4812L34.7735 38.9615L34.9206 39.4457L35.1628 39.9123L35.4846 40.3356L35.8878 40.7184L36.3454 41.0302L36.8296 41.2533L37.334 41.3852L37.7841 41.4079L38.7499 41.4169L42.0253 41.4079L42.1027 41.4422L42.1267 41.522L42.1242 41.536L41.7261 43.033L41.7301 43.0952L41.7832 43.1305L41.9963 43.1673L42.2548 43.1788L44.3944 43.1623L44.473 43.1293L44.506 43.0507V35.8294L44.5491 35.7253L44.6531 35.6823H48.3302L48.3899 35.7013L48.433 35.7849V43.019L48.4773 43.1255L48.5839 43.1698L56.5798 43.1598L56.8548 43.1763L57.1032 43.2269L57.3251 43.3119L57.5215 43.4323L57.7459 43.6529L57.879 43.8418L57.9867 44.0382L58.0679 44.2384L58.1198 44.44L58.1425 44.6339L58.1363 44.8253L58.0995 45.0092L58.0324 45.1853L57.9361 45.345L57.8092 45.4921L57.6596 45.6151L57.4822 45.724L57.4099 45.7595L57.0297 45.8876L56.6113 45.9357L54.2397 45.9662L52.7123 45.9497L52.0633 45.9244L49.9527 45.8521L48.4178 45.8306L48.106 45.8318L43.4286 45.8331L41.64 45.8571L39.1949 45.9357L38.3253 45.9674L37.1021 45.9585L34.7444 45.8876L31.7326 45.8255L27.5522 45.8293L25.7103 45.8369L23.1753 45.8989L21.6274 45.9447H19.6298L17.0616 45.8736L13.8572 45.8229L10.0773 45.8609L9.53478 45.9014L9.2369 45.8989L8.95423 45.8458L8.68677 45.7405L8.43453 45.5834L8.25707 45.4185L8.09229 45.1638L7.99469 44.852L7.97693 44.5161L8.03652 44.1788L8.16707 43.8608L8.36482 43.5819L8.61707 43.3652L8.89719 43.2308L9.07592 43.1876L9.26732 43.1725L17.3468 43.1585L17.6904 43.1445ZM22.8761 38.599L22.8113 38.5685L22.7923 38.5002L22.7962 38.4874L23.9497 35.1031L23.9357 35.0042L23.7265 34.7355L23.5263 34.5479L23.3362 34.4426L23.1563 34.416L23.0345 34.4401L22.8508 34.5224L22.7125 34.6264L22.5491 34.8559L22.3969 35.2514L22.3462 35.3971L21.2093 38.6358L21.0862 39.1162L21.0762 39.3113L21.1015 39.4622L21.1915 39.6549L21.3182 39.8045L21.436 39.8855L21.573 39.9438L21.7314 39.9781L21.9089 39.9896L26.3492 40.0036L26.7067 40.0364L27.054 40.1162L27.3848 40.2405L27.6928 40.4079L27.9628 40.6081L28.1974 40.8465L28.3836 41.1075L28.5269 41.3991L28.608 41.6653L28.6511 41.9506L28.7031 42.9164L28.7183 42.9987L28.7551 43.0634L28.8121 43.1103L28.892 43.1382L29.3724 43.1876L29.9378 43.1508L30.0113 43.114L30.0481 43.0394L30.0834 42.6109L30.0809 42.1773L30.0416 41.7604L29.9618 41.3509L29.8502 40.9771L29.6994 40.6208L29.5194 40.2976L29.3001 39.9984L29.0897 39.7664L28.8654 39.5573L28.5612 39.3253L28.2379 39.1289L27.883 38.959L27.5116 38.8247L27.1034 38.7169L26.6813 38.6433L26.2389 38.6003L25.7636 38.5888L22.8761 38.599Z" fill="#706EFA"/>
<path d="M44.2285 34.3256L43.9191 34.3763L43.6618 34.4727L43.4502 34.621L43.3133 34.8009L43.2486 34.9809L43.2321 35.1952L43.241 35.4334L43.2448 39.9587L43.2347 40.036L43.2017 40.0918L43.1459 40.126L43.0686 40.1375L38.2937 40.1538L37.7523 40.1285L37.2999 40.0412L36.9272 39.8916L36.6204 39.6709L36.5216 39.5696L36.3454 39.3414L36.2059 39.0955L36.1147 38.8686L36.05 38.6277L36.0132 38.3742L36.0032 38.108L36.0184 29.2907L36.017 29.1171L36.0297 28.5251L36.0995 28.1132L36.1831 27.8749L36.2909 27.6607L36.4202 27.4705L36.5736 27.3069L36.8043 27.1308L37.073 26.9964L37.3797 26.9026L37.7245 26.8506L38.4243 26.819L39.5295 26.8101L53.7899 26.8303H54.6873L55.0802 26.8621L55.4934 26.9749L55.8725 27.1561L56.174 27.383L56.3566 27.5896L56.4999 27.8166L56.5835 28.008L56.6431 28.2121L56.6774 28.4288L56.6887 28.657L56.6709 34.2305L56.6951 37.9826L56.6697 38.4782L56.5773 38.9104L56.4187 39.2781L56.1918 39.5809L55.9433 39.7901L55.6443 39.9511L55.3591 40.0322L54.9383 40.0905L54.3831 40.1273L53.6934 40.14L49.9161 40.1311L49.8552 40.1045L49.8299 40.0437L49.8273 36.1357V36.0659L49.8184 35.5741L49.7766 35.2218L49.6955 34.9455L49.5714 34.7312L49.333 34.4992L49.0643 34.3623L48.8069 34.3218L45.8395 34.2901L44.2285 34.3256Z" fill="#706EFA"/>
<path d="M4.96524 51.906L4.98045 51.8249L5.02736 51.7564L5.09581 51.7096L5.17693 51.6943L8.57277 51.6994L8.99994 51.7196L9.42332 51.7792L9.83909 51.8755L10.2422 52.0099L10.6288 52.1785L10.9951 52.3826L11.3386 52.6183L11.6555 52.8845L11.9433 53.1775L12.1968 53.4955L12.4173 53.8353L12.5999 54.1928L12.7431 54.5641L12.8458 54.9481L12.9079 55.3386L12.9282 55.7328V56.3057L12.9054 56.7012L12.842 57.0917L12.738 57.4745L12.5923 57.8459L12.4097 58.2034L12.1879 58.5418L11.9331 58.8586L11.6454 59.1501L11.3272 59.4151L10.9824 59.651L10.6148 59.8524L10.2282 60.021L9.82388 60.1529L9.40938 60.2492L8.98473 60.3062L8.55756 60.324L5.16171 60.319L5.0806 60.3025L5.01215 60.2567L4.96651 60.1871L4.95003 60.1073L4.96524 51.906ZM6.98069 53.7517L6.9883 58.3427L7.01872 58.4441L7.09858 58.5126L7.17589 58.5291L8.45235 58.5278L8.93783 58.4796L9.4043 58.3402L9.83274 58.1146L10.2092 57.8103L10.5172 57.4403L10.7467 57.0182L10.8874 56.5618L10.9343 56.0852V55.9939L10.8861 55.5186L10.7429 55.0622L10.5134 54.6401L10.2029 54.2726L9.82641 53.9696L9.39543 53.7452L8.92896 53.6071L8.44474 53.5615L7.1683 53.5628L7.09605 53.578L7.0352 53.6185L6.99463 53.6794L6.98069 53.7517Z" fill="#706EFA"/>
<path d="M36.8055 55.6779L35.813 57.322L35.1297 58.5134L34.9624 58.7391L34.7609 58.8659L34.6278 58.895L34.2526 58.9165L33.9699 58.8937L33.7481 58.8189L33.5935 58.6948L33.5517 58.6351L31.9253 55.9137L31.8924 55.8871L31.8645 55.9187L31.7314 56.346L31.6883 56.702L31.6971 60.2956L31.6693 60.3768L31.5882 60.4034H30.0949L29.9682 60.3856L29.8782 60.3311L29.8237 60.2412L29.8059 60.1157L29.8084 52.5836L29.7946 52.2301L29.7514 51.8498L29.7819 51.7332L29.8871 51.6736H29.8922L30.635 51.6406L31.3904 51.6571L31.5197 51.6736L31.6211 51.7129L31.7023 51.7788L31.7796 51.8803L32.0293 52.2934L33.1637 54.3012L34.264 56.1659L34.3008 56.1887L34.3401 56.1748L34.3476 56.1646L36.8701 51.7953L36.9704 51.6964L37.106 51.6596H38.6689L38.7678 51.6787L38.8514 51.7344L38.9071 51.818L38.9262 51.9156V60.1727L38.8894 60.2753L38.7968 60.3323L38.2569 60.4123L37.7195 60.4199L37.367 60.3856L37.0147 60.321L36.9323 60.269L36.9006 60.179V55.7045L36.8765 55.6069L36.8055 55.6779Z" fill="#706EFA"/>
<path d="M42.2903 58.7633L41.6781 60.2515L41.597 60.3478L41.4752 60.3781L39.631 60.259H39.6272L39.6119 60.2287L40.617 57.6872L41.5665 55.337L42.8607 52.0565L42.947 51.893L43.0648 51.7702L43.2385 51.6814L43.4539 51.6484L44.1625 51.6421L44.8255 51.6611L45.0029 51.7207L45.1259 51.8626L45.463 52.6131L45.9258 53.7475L46.3249 54.726L47.4785 57.4628L48.4913 59.9625L48.5864 60.3022L48.5876 60.3123L48.5661 60.3808L48.5001 60.4099H46.7091L46.6191 60.3959L46.5368 60.3553L46.4708 60.2933L46.4252 60.2134L45.8687 58.7393L45.8078 58.6568L45.7089 58.629H42.4906L42.3701 58.6657L42.2903 58.7633ZM42.9888 56.8734L42.9988 56.9582L43.0749 56.9988H45.0499L45.1259 56.9582L45.136 56.8734L44.1485 54.3027L44.1004 54.2521L44.0269 54.2507L43.9761 54.3027L42.9888 56.8734Z" fill="#706EFA"/>
<path d="M15.8574 56.9394V58.3935L15.8917 58.4746L15.9728 58.5088H20.0874L20.1482 58.5341L20.1735 58.5949V60.1516L20.1394 60.2454L20.0519 60.2935L19.2964 60.3798L18.4244 60.4088L14.0588 60.4051L13.9739 60.3873L13.9029 60.3391L13.8547 60.2669L13.8382 60.1819V51.878L13.8535 51.7995L13.8978 51.7324L13.965 51.6866L14.0436 51.6714H19.9619L20.0469 51.6841L20.1077 51.7196L20.1445 51.7817L20.1572 51.8667V53.3116L20.1558 53.3294L20.1342 53.4004L20.0836 53.4575L20.0151 53.4892L19.9403 53.4905L19.5791 53.446L19.1849 53.4447L15.9348 53.5791L15.8802 53.6033L15.8587 53.6577V54.9444L15.9007 55.047L16.0033 55.0888H19.4447L19.531 55.1065L19.6045 55.1548L19.6526 55.2283L19.6704 55.3144V56.748L19.6361 56.8293L19.555 56.8621H15.9348L15.8765 56.8811L15.8574 56.9394Z" fill="#706EFA"/>
<path d="M24.7788 57.4086L24.8396 57.5177L24.8877 57.5507L24.9232 57.5074L24.9486 57.3908L24.9967 57.1881L25.107 56.8712L25.9209 54.6467L26.8601 51.9403L26.9425 51.825L27.0768 51.778L28.9592 51.6982L29.0201 51.7235L29.0416 51.7857L29.0403 51.7958L28.8527 52.4258L25.9829 59.9273L25.9765 59.945L25.8246 60.253L25.7433 60.3418L25.642 60.4001L25.4594 60.4154L24.6647 60.3216L23.8408 60.2785L23.7698 60.2556L23.724 60.196L20.5893 51.9036L20.5805 51.8718L20.5831 51.7945L20.6198 51.7249L20.6819 51.6767L20.758 51.6602H22.5415L22.6429 51.6919L22.7087 51.7768L24.4631 56.624L24.7788 57.4086Z" fill="#706EFA"/>
<path d="M51.8289 53.5853L51.7566 53.6183L51.7275 53.6918V60.14L51.7085 60.2679L51.654 60.358L51.5614 60.4075L51.4333 60.4175L49.8476 60.3149L49.745 60.2667L49.7032 60.1603V53.7261L49.6549 53.6095L49.5383 53.5612H47.4722L47.3429 53.5422L47.2491 53.4864L47.1933 53.3939L47.1743 53.262V51.9349L47.1908 51.8183L47.2415 51.7346L47.3251 51.684L47.4417 51.6675H54.0876L54.2044 51.7068L54.2423 51.8221V53.3686L54.2094 53.4522L54.1269 53.4889L51.8289 53.5853Z" fill="#706EFA"/>
<path d="M57.0551 56.9243V58.4137L57.0829 58.4808L57.1489 58.5088H61.0873L61.2051 58.5253L61.2901 58.5759L61.3407 58.6609L61.3572 58.7787V60.1896L61.3382 60.2389L61.2901 60.2631L60.0642 60.3505L58.7512 60.4L57.3264 60.4165L55.3464 60.4025H55.3273L55.1955 60.3822L55.1017 60.3239L55.0459 60.2301L55.027 60.0995V51.7563L55.0536 51.6918L55.1182 51.665H61.1393L61.2356 51.679L61.3052 51.7196L61.3459 51.7893L61.3597 51.8857V53.3168L61.3282 53.4181L61.2356 53.4651L60.8629 53.5157L60.475 53.5385L57.0209 53.5665L56.9511 53.5893L56.9283 53.659V54.9595L56.9651 55.0496L57.0551 55.0864H60.6664L60.7145 55.1066L60.7349 55.1547V56.7481L60.7019 56.8292L60.6209 56.8622H57.1172L57.0704 56.8773L57.0551 56.9243Z" fill="#706EFA"/>
</svg>
