<svg width="145" height="53" viewBox="0 0 145 53" fill="none" xmlns="http://www.w3.org/2000/svg">
<path d="M90.4024 14.1589L90.1734 14.791L90.1622 14.8083L90.1174 14.8205L90.0817 14.79L89.8853 14.1466L89.755 13.5512L89.6278 12.7684L89.5494 11.9775L89.5178 11.1764L89.5351 10.3662L89.584 9.87247L89.6817 9.39304L89.8609 8.8454L90.1143 8.29675L90.4543 7.72062L90.9297 7.0315L91.3175 6.54494L91.7704 6.06551L92.2886 5.59117L92.8718 5.12395L93.1436 4.93665L93.4245 4.77786L93.7126 4.64757L94.0098 4.5468L94.416 4.45722L94.8364 4.41752L95.2333 4.4165L95.614 4.44093L95.9805 4.49081L96.3368 4.56614L96.693 4.66996L97.0442 4.80127L97.4015 4.96516L97.7588 5.15856L98.1435 5.36315L98.5324 5.52907L98.909 5.65122L99.2754 5.73062L99.6297 5.76523L99.9635 5.75607L100.289 5.7011L100.589 5.60338L100.991 5.38962L101.292 5.22065L101.452 5.17281L101.567 5.17484L101.678 5.20334L101.792 5.25933L101.899 5.33771L102.01 5.44764L102.104 5.57183L102.185 5.71128L102.241 5.84971L102.309 6.12047L102.348 6.39531L102.361 6.68948L102.345 6.98468L102.303 7.29514L102.231 7.62087L102.135 7.94558L102.012 8.27843L101.872 8.58075L101.706 8.87289L101.508 9.16401L101.286 9.44088L101.031 9.71571L100.759 9.9712L100.464 10.2114L100.16 10.4262L99.6276 10.7519L99.1065 11.0196L98.6097 11.2232L98.1283 11.3657L97.6743 11.4451L97.2417 11.4635L96.8223 11.4197L96.4314 11.3128L96.2177 11.2253L95.4644 10.8863L94.8099 10.6216L94.7458 10.5992L94.5127 10.5473L94.2775 10.5351L94.0302 10.5616L93.7869 10.6247L93.5365 10.7285L93.2983 10.8659L93.0713 11.0359L92.8688 11.2314L91.2045 13.0259L90.9164 13.3476L90.6864 13.6438L90.5154 13.9146L90.4024 14.1589Z" fill="black"/>
<path d="M104.895 8.71134L105.081 9.07677L105.234 9.43507L105.351 9.78828L105.434 10.1354L105.523 10.7003L105.578 11.2632L105.599 11.8241L105.585 12.3839L105.504 13.1911L105.414 13.6227L105.274 14.0553L105.076 14.5032L104.818 14.9735L104.779 15.0264L104.748 15.0407L104.725 15.0152L104.711 14.9511L104.649 14.5572L104.553 14.1816L104.427 13.8212L104.267 13.4782L103.986 13.0211L103.64 12.5977L102.398 11.3223L102.17 11.0342L102.079 10.8734L102.015 10.7217L101.978 10.5843L101.964 10.4458L101.974 10.3227L102.01 10.2046L102.093 10.0723L102.335 9.76588L102.556 9.45034L102.758 9.12359L102.938 8.78768L103.131 8.36118L103.293 7.92043L103.424 7.46441L103.525 6.99312L103.55 6.93408L103.597 6.89234L103.658 6.87402L103.721 6.8842L103.747 6.89743L103.854 6.98904L103.963 7.12545L104.324 7.70769L104.895 8.71134Z" fill="black"/>
<path d="M97.1143 15.4265L97.0533 15.4346L97.0085 15.4611L96.9779 15.5038L96.9647 15.5649L96.9067 15.9975L96.8018 16.3955L96.6481 16.7589L96.4466 17.0877L96.2451 17.333L96.0099 17.5549L95.7422 17.7534L95.4419 17.9285L95.1386 18.0608L94.8434 18.1493L94.536 18.2043L94.2164 18.2247L93.8845 18.2114L93.6413 18.1789L93.4061 18.1259L93.17 18.0506L92.944 17.9559L92.6315 17.7819L92.3465 17.5702L92.092 17.3259L91.8721 17.052L91.6899 16.7528L91.5484 16.4321L91.4517 16.1034L91.3988 15.7603L91.3896 15.515L91.4039 15.2656L91.4405 15.0234L91.5006 14.7801L91.5892 14.5226L91.6991 14.2813L91.8294 14.0564L91.98 13.8487L92.265 13.5505L92.603 13.296L92.9939 13.0832L93.4377 12.9143L93.7512 12.8389L94.0728 12.8033L94.4067 12.8084L94.7375 12.8522L95.0622 12.9356L95.3737 13.0547L95.6648 13.2084L95.9305 13.3947L96.2898 13.7398L96.6604 14.2029L96.7489 14.2813L96.8629 14.3118L97.9846 14.3129L98.1546 14.2986L98.2686 14.266L98.3134 14.2345L98.3399 14.1989L98.5964 13.7846L98.7216 13.6278L98.8366 13.5158L99.2428 13.2247L99.652 13.0079L100.078 12.8603L100.503 12.7891H100.915L101.342 12.8573L101.652 12.9489L101.946 13.069L102.223 13.2176L102.479 13.3927L102.712 13.5932L102.919 13.8171L103.094 14.0564L103.24 14.3159L103.341 14.5521L103.417 14.8025L103.469 15.0549L103.496 15.3186L103.502 15.6565L103.482 15.9507L103.436 16.2194L103.357 16.4759L103.186 16.8261L102.936 17.1732L102.624 17.4979L102.288 17.7615L101.921 17.9682L101.538 18.1076L101.243 18.1697L100.807 18.2094L100.395 18.1952L100.006 18.1259L99.6398 18.0028L99.3598 17.8633L99.0942 17.6893L98.8448 17.4785L98.6096 17.2332L98.405 16.9686L98.2412 16.6958L98.117 16.4138L98.0325 16.1227L97.9908 15.8448L97.9826 15.5588L97.9765 15.5008L97.9531 15.46L97.9124 15.4346L97.8544 15.4265H97.1143ZM95.8228 15.8407L95.8512 15.5218L95.815 15.2029L95.7155 14.8963L95.5566 14.6137L95.3443 14.366L95.0868 14.1628L94.7941 14.0118L94.4773 13.9189L94.1486 13.8875L93.8207 13.919L93.5062 14.0121L93.2171 14.1632L92.9646 14.3665L92.7584 14.6143L92.6063 14.8969L92.5143 15.2036L92.4858 15.5225L92.5221 15.8414L92.6215 16.148L92.7805 16.4306L92.9928 16.6782L93.2502 16.8815L93.543 17.0324L93.8598 17.1254L94.1884 17.1567L94.5163 17.1253L94.8309 17.0322L95.1199 16.8811L95.3725 16.6777L95.5787 16.43L95.7307 16.1473L95.8228 15.8407ZM102.422 15.5573L102.396 15.2376L102.307 14.929L102.158 14.6433L101.955 14.3915L101.705 14.1832L101.419 14.0265L101.106 13.9274L100.781 13.8897L100.454 13.9149L100.138 14.0019L99.8458 14.1475L99.5884 14.346L99.3756 14.5899L99.2155 14.8696L99.1144 15.1746L99.0761 15.4931L99.1022 15.8127L99.1915 16.1214L99.3407 16.4071L99.544 16.6589L99.7936 16.8672L100.08 17.0239L100.392 17.123L100.718 17.1607L101.045 17.1355L101.361 17.0485L101.653 16.9029L101.91 16.7044L102.123 16.4605L102.283 16.1807L102.384 15.8758L102.422 15.5573Z" fill="black"/>
<path d="M85.206 34.6463L85.2355 34.6239L85.2334 34.5872L85.2243 34.576L84.9291 34.2941L84.808 34.1383L84.7052 33.9734L84.6146 33.7831L84.5443 33.5805L84.4955 33.3667L84.467 33.1418L84.4883 32.9525L84.5688 32.6501L86.2544 27.3123L86.5923 26.3595L86.7532 25.9808L86.9099 25.6694L87.2357 25.138L87.6337 24.5904L88.1182 24.0061L88.789 23.262L88.8144 23.2345L88.9956 23.0615L89.1992 22.9058L89.4323 22.7622L89.701 22.6258L89.9952 22.5037L90.3199 22.3917L91.0854 22.1912L91.5455 22.1332L92.545 22.0405L93.1731 21.9611L93.7004 21.841L94.1208 21.6833L94.2887 21.5906L94.4343 21.4848L94.5137 21.4512L94.5982 21.4664L95.1376 21.7291L95.6853 21.951L96.2411 22.1342L96.806 22.2767L97.3058 22.3693L97.8127 22.4314L98.3257 22.463L98.8459 22.465L98.8825 22.4793L98.8978 22.5159L98.9039 26.729L98.8876 30.9014L98.9242 31.2872L99.0423 31.676L99.2367 32.0506L99.4953 32.3906L99.819 32.698L100.186 32.9484L100.575 33.1275L100.98 33.2334L101.342 33.2517L102.117 33.2589L104.748 33.2517L104.81 33.2792L104.829 33.3433L104.827 33.3545L104.507 34.5567L104.51 34.6066L104.553 34.6351L104.724 34.6646L104.932 34.6737L106.65 34.6605L106.713 34.634L106.74 34.5709V28.7719L106.774 28.6885L106.858 28.6539H109.811L109.859 28.6691L109.893 28.7363V34.5455L109.929 34.631L110.014 34.6666L116.435 34.6585L116.656 34.6717L116.856 34.7124L117.034 34.7806L117.192 34.8773L117.372 35.0544L117.479 35.2061L117.565 35.3639L117.63 35.5247L117.672 35.6866L117.69 35.8423L117.685 35.996L117.656 36.1436L117.602 36.2851L117.524 36.4133L117.423 36.5314L117.302 36.6302L117.16 36.7177L117.102 36.7462L116.797 36.849L116.461 36.8877L114.556 36.9121L113.33 36.8989L112.808 36.8785L111.114 36.8205L109.881 36.8032L109.631 36.8042L105.874 36.8052L104.438 36.8246L102.475 36.8877L101.776 36.9131L100.794 36.906L98.9008 36.849L96.4823 36.7991L93.1252 36.8022L91.6462 36.8083L89.6104 36.8582L88.3676 36.8948H86.7634L84.7011 36.8378L82.1278 36.7971L79.0924 36.8276L78.6568 36.8602L78.4176 36.8582L78.1906 36.8154L77.9758 36.7309L77.7732 36.6047L77.6307 36.4724L77.4984 36.2678L77.42 36.0174L77.4058 35.7476L77.4536 35.4769L77.5584 35.2214L77.7172 34.9974L77.9198 34.8234L78.1448 34.7155L78.2883 34.6809L78.442 34.6687L84.9301 34.6575L85.206 34.6463ZM89.3702 30.9961L89.3183 30.9716L89.303 30.9167L89.3061 30.9065L90.2324 28.1887L90.2212 28.1093L90.0532 27.8935L89.8924 27.7428L89.7397 27.6583L89.5952 27.637L89.4974 27.6563L89.3498 27.7225L89.2389 27.8059L89.1076 27.9902L88.9854 28.3078L88.9447 28.4248L88.0317 31.0256L87.9329 31.4114L87.9248 31.5681L87.9451 31.6892L88.0174 31.844L88.1192 31.9641L88.2139 32.0292L88.3238 32.076L88.451 32.1035L88.5935 32.1127L92.1593 32.1239L92.4463 32.1504L92.7252 32.2145L92.9909 32.3142L93.2382 32.4486L93.455 32.6094L93.6434 32.8008L93.793 33.0105L93.908 33.2446L93.9732 33.4584L94.0078 33.6874L94.0495 34.463L94.0617 34.5292L94.0912 34.5811L94.137 34.6188L94.2012 34.6412L94.587 34.6809L95.0409 34.6514L95.1 34.6218L95.1295 34.5618L95.158 34.2177L95.156 33.8696L95.1244 33.5347L95.0603 33.2059L94.9707 32.9056L94.8496 32.6196L94.705 32.36L94.5289 32.1198L94.36 31.9335L94.1798 31.7656L93.9355 31.5793L93.6759 31.4215L93.3909 31.2851L93.0927 31.1772L92.7649 31.0907L92.426 31.0317L92.0707 30.9971L91.689 30.9879L89.3702 30.9961Z" fill="black"/>
<path d="M106.517 27.5649L106.268 27.6057L106.062 27.683L105.892 27.8021L105.782 27.9466L105.73 28.0912L105.717 28.2632L105.724 28.4546L105.727 32.0885L105.719 32.1506L105.692 32.1954L105.648 32.2229L105.585 32.232L101.751 32.2453L101.316 32.2249L100.953 32.1547L100.654 32.0346L100.407 31.8574L100.328 31.776L100.186 31.5928L100.074 31.3953L100.001 31.2131L99.9493 31.0197L99.9198 30.8161L99.9116 30.6024L99.9238 23.5218L99.9228 23.3824L99.933 22.907L99.989 22.5762L100.056 22.3848L100.143 22.2128L100.247 22.0601L100.37 21.9288L100.555 21.7873L100.771 21.6794L101.017 21.6041L101.294 21.5624L101.856 21.5369L102.743 21.5298L114.195 21.5461H114.916L115.231 21.5715L115.563 21.6621L115.867 21.8077L116.11 21.9899L116.256 22.1558L116.371 22.338L116.438 22.4917L116.486 22.6556L116.514 22.8297L116.523 23.0129L116.509 27.4886L116.528 30.5016L116.508 30.8996L116.433 31.2467L116.306 31.5419L116.124 31.7852L115.924 31.9531L115.684 32.0824L115.455 32.1475L115.117 32.1944L114.671 32.2239L114.117 32.2341L111.084 32.2269L111.035 32.2056L111.015 32.1567L111.013 29.0185V28.9625L111.006 28.5676L110.972 28.2846L110.907 28.0627L110.807 27.8907L110.616 27.7044L110.4 27.5945L110.193 27.5619L107.811 27.5364L106.517 27.5649Z" fill="black"/>
<path d="M0.0362235 14.4906L0.072447 14.3026L0.184139 14.1439L0.347154 14.0353L0.540349 14L8.62758 14.0118L9.64489 14.0588L10.6532 14.1968L11.6433 14.4201L12.6033 14.7315L13.524 15.1222L14.3964 15.5952L15.2145 16.1416L15.9692 16.7585L16.6544 17.4371L17.2582 18.1745L17.7834 18.9618L18.2181 19.7903L18.5593 20.651L18.8038 21.5411L18.9517 22.4459L19 23.3596V24.6874L18.9457 25.604L18.7947 26.5088L18.5472 27.396L18.2 28.2568L17.7653 29.0852L17.237 29.8696L16.6303 30.604L15.945 31.2797L15.1873 31.8937L14.3662 32.4401L13.4908 32.9072L12.5701 33.2979L11.6071 33.6034L10.62 33.8267L9.60867 33.9589L8.59135 34L0.504126 33.9883L0.310931 33.9501L0.147916 33.8443L0.039236 33.6827L0 33.4976L0.0362235 14.4906ZM4.83603 18.7679L4.85414 29.4083L4.92659 29.6434L5.11677 29.802L5.30092 29.8402L8.34079 29.8373L9.49698 29.7256L10.6079 29.4025L11.6282 28.8796L12.5248 28.1745L13.2583 27.3167L13.8047 26.3384L14.1398 25.2809L14.2515 24.1763V23.9647L14.1368 22.8631L13.7957 21.8055L13.2493 20.8273L12.5097 19.9753L11.6131 19.2732L10.5867 18.7532L9.47584 18.433L8.32268 18.3273L5.28281 18.3302L5.11074 18.3654L4.96583 18.4595L4.86923 18.6005L4.83603 18.7679Z" fill="black"/>
<path d="M73.146 23.1972L70.8743 26.9425L69.3104 29.6569L68.9275 30.1709L68.4662 30.4597L68.1615 30.5261L67.3027 30.5752L66.6557 30.5232L66.148 30.3529L65.794 30.0699L65.6983 29.9342L61.9758 23.7343L61.9004 23.6737L61.8366 23.7459L61.5319 24.719L61.4333 25.5305L61.4536 33.717L61.3898 33.9018L61.2041 33.9625H57.7863L57.4961 33.922L57.2901 33.7979L57.1654 33.5928L57.1248 33.307L57.1306 16.1484L57.0987 15.3428L57 14.4765L57.0696 14.2108L57.3104 14.0751H57.3221L59.0222 14L60.7515 14.0375L61.0474 14.0751L61.2795 14.1646L61.4652 14.3147L61.6422 14.5458L62.2137 15.4871L64.8105 20.0612L67.3288 24.309L67.413 24.361L67.5029 24.3292L67.5203 24.3061L73.294 14.3523L73.5232 14.1271L73.8337 14.0433H77.411L77.6373 14.0866L77.8288 14.2137L77.9565 14.4043L78 14.6266V33.4369L77.9159 33.6708L77.7041 33.8008L76.4681 33.9827L75.2379 34L74.4313 33.922L73.6248 33.7748L73.4362 33.6564L73.3636 33.4513V23.2579L73.3085 23.0355L73.146 23.1972Z" fill="black"/>
<path d="M25.4622 26.0586V29.3866L25.5378 29.5723L25.7171 29.6507H34.8095L34.944 29.7087L35 29.848V33.411L34.9244 33.6257L34.7311 33.736L33.0616 33.9333L31.1345 34L21.4874 33.9913L21.2997 33.9507L21.1429 33.8404L21.0364 33.675L21 33.4806V14.4729L21.0336 14.2931L21.1317 14.1393L21.2801 14.0348L21.4538 14H34.5322L34.7199 14.029L34.8543 14.1103L34.9356 14.2524L34.9636 14.4468V17.7545L34.9608 17.7952L34.9132 17.9576L34.8011 18.0882L34.6499 18.1608L34.4846 18.1636L33.6863 18.0621L32.8151 18.0592L25.633 18.3667L25.5126 18.4219L25.465 18.5466V21.4917L25.5574 21.7267L25.7843 21.8224H33.3894L33.5798 21.863L33.7423 21.9733L33.8487 22.1416L33.888 22.3389V25.6205L33.8123 25.8062L33.6331 25.8816H25.633L25.5042 25.9251L25.4622 26.0586Z" fill="black"/>
<path d="M45.4274 27.1316L45.564 27.3806L45.6722 27.4559L45.7519 27.3575L45.8088 27.0911L45.917 26.6278L46.1646 25.9039L47.9921 20.8221L50.1013 14.6399L50.2863 14.3764L50.588 14.2693L54.815 14.0869L54.9516 14.1448L55 14.2867L54.9972 14.3098L54.5759 15.749L48.1315 32.8852L48.1173 32.9257L47.7757 33.6294L47.5936 33.8321L47.3658 33.9653L46.956 34L45.1712 33.7857L43.321 33.6873L43.1616 33.6352L43.0592 33.4991L36.0199 14.556L36 14.4836L36.0057 14.307L36.0882 14.1477L36.2277 14.0376L36.3985 14H40.4034L40.6312 14.0724L40.7792 14.2664L44.7187 25.3392L45.4274 27.1316Z" fill="black"/>
<path d="M123.537 20.3836L123.373 20.4589L123.307 20.627V35.3655L123.264 35.6581L123.141 35.8638L122.931 35.9768L122.641 36L119.052 35.7653L118.819 35.6552L118.725 35.4119V20.7052L118.615 20.4386L118.352 20.3285H113.674L113.382 20.2851L113.169 20.1576L113.043 19.9461L113 19.6448V16.6113L113.037 16.3448L113.152 16.1535L113.341 16.0376L113.605 16H128.65L128.914 16.0898L129 16.3535V19.8882L128.925 20.0794L128.739 20.1634L123.537 20.3836Z" fill="black"/>
<path d="M134.804 28.0191V31.4229L134.87 31.5765L135.026 31.6402H144.354L144.634 31.6779L144.835 31.7938L144.955 31.9878L144.994 32.2572V35.4815L144.949 35.5944L144.835 35.6495L141.932 35.8494L138.821 35.9623L135.446 36L130.757 35.9681H130.712L130.399 35.9218L130.177 35.7885L130.045 35.5742L130 35.2758V16.2086L130.063 16.0608L130.216 16H144.478L144.706 16.0319L144.871 16.1246L144.967 16.2839L145 16.5041V19.7746L144.925 20.0064L144.706 20.1136L143.823 20.2294L142.904 20.2816L134.723 20.3453L134.558 20.3974L134.504 20.5568V23.529L134.591 23.7347L134.804 23.8187H143.358L143.472 23.865L143.52 23.9751V27.6165L143.442 27.8019L143.25 27.8772H134.951L134.84 27.9119L134.804 28.0191Z" fill="black"/>
</svg>
