<svg width="42" height="42" viewBox="0 0 42 42" fill="none" xmlns="http://www.w3.org/2000/svg">
<path d="M15.3755 11.2204L15.194 11.7213L15.1851 11.735L15.1496 11.7447L15.1214 11.7205L14.9657 11.2107L14.8624 10.7388L14.7616 10.1185L14.6995 9.49173L14.6745 8.8569L14.6882 8.21482L14.7269 7.82359L14.8044 7.44367L14.9463 7.00969L15.1472 6.57491L15.4166 6.11835L15.7933 5.57226L16.1006 5.18669L16.4596 4.80676L16.8702 4.43086L17.3324 4.06062L17.5478 3.91219L17.7704 3.78636L17.9987 3.68311L18.2342 3.60325L18.5561 3.53227L18.8892 3.50081L19.2038 3.5L19.5055 3.51936L19.7959 3.55889L20.0782 3.61858L20.3605 3.70085L20.6388 3.80491L20.9219 3.93478L21.2051 4.08804L21.51 4.25017L21.8181 4.38166L22.1166 4.47846L22.407 4.54137L22.6877 4.5688L22.9522 4.56154L23.2104 4.51798L23.4475 4.44054L23.7661 4.27115L24.0049 4.13725L24.1316 4.09933L24.2227 4.10095L24.3106 4.12353L24.401 4.1679L24.4857 4.23001L24.5736 4.31713L24.6486 4.41554L24.7123 4.52605L24.7567 4.63575L24.8107 4.85032L24.8422 5.06811L24.8519 5.30123L24.8398 5.53516L24.8059 5.78118L24.7494 6.03931L24.6728 6.29662L24.5752 6.56039L24.4647 6.79997L24.3332 7.03147L24.1759 7.26217L24.0001 7.48158L23.7984 7.69937L23.5822 7.90184L23.3491 8.0922L23.1079 8.26241L22.6861 8.52053L22.2731 8.73268L21.8794 8.89401L21.4979 9.00693L21.1381 9.06985L20.7953 9.08437L20.463 9.04969L20.1532 8.96499L19.9838 8.89562L19.3869 8.62701L18.8682 8.41728L18.8174 8.39953L18.6327 8.3584L18.4463 8.34872L18.2503 8.36969L18.0576 8.4197L17.8591 8.50198L17.6704 8.61088L17.4905 8.74558L17.33 8.90046L16.0111 10.3226L15.7828 10.5775L15.6005 10.8122L15.465 11.0268L15.3755 11.2204Z" fill="black"/>
<path d="M26.8604 6.90325L27.008 7.19283L27.129 7.47677L27.2218 7.75668L27.2871 8.03174L27.3581 8.47943L27.4017 8.9255L27.4178 9.36996L27.4073 9.81361L27.3428 10.4533L27.2718 10.7953L27.1605 11.1381L27.004 11.493L26.7991 11.8657L26.7685 11.9076L26.7435 11.9189L26.7257 11.8988L26.7144 11.848L26.6652 11.5358L26.5894 11.2381L26.4894 10.9526L26.3627 10.6807L26.1401 10.3186L25.8658 9.983L24.8817 8.97228L24.701 8.74401L24.6284 8.61655L24.5776 8.49637L24.5486 8.38747L24.5373 8.27777L24.5454 8.18016L24.5744 8.08659L24.6397 7.98173L24.8317 7.73893L25.0068 7.48887L25.1665 7.22994L25.3092 6.96375L25.4625 6.62577L25.5908 6.27649L25.6948 5.91512L25.7747 5.54164L25.794 5.49486L25.8319 5.46178L25.8803 5.44727L25.9296 5.45533L25.9505 5.46582L26.0352 5.53841L26.1215 5.64651L26.4079 6.1079L26.8604 6.90325Z" fill="black"/>
<path d="M20.6944 12.2248L20.646 12.2312L20.6106 12.2522L20.5864 12.2861L20.5759 12.3345L20.5299 12.6773L20.4468 12.9927L20.325 13.2807L20.1653 13.5412L20.0056 13.7356L19.8192 13.9115L19.6071 14.0688L19.3691 14.2075L19.1288 14.3124L18.8948 14.3825L18.6512 14.4261L18.3979 14.4422L18.135 14.4317L17.9422 14.4059L17.7559 14.364L17.5687 14.3043L17.3896 14.2293L17.142 14.0913L16.9161 13.9236L16.7145 13.73L16.5402 13.513L16.3959 13.2758L16.2837 13.0217L16.2071 12.7612L16.1652 12.4893L16.1579 12.2949L16.1692 12.0973L16.1982 11.9053L16.2458 11.7126L16.316 11.5085L16.4031 11.3173L16.5064 11.139L16.6258 10.9745L16.8516 10.7381L17.1194 10.5365L17.4292 10.3679L17.7809 10.234L18.0293 10.1743L18.2842 10.1461L18.5488 10.1501L18.8109 10.1848L19.0683 10.2509L19.3151 10.3453L19.5458 10.4671L19.7563 10.6147L20.0411 10.8882L20.3347 11.2552L20.4049 11.3173L20.4952 11.3415L21.3841 11.3423L21.5188 11.331L21.6092 11.3052L21.6447 11.2802L21.6656 11.252L21.8689 10.9237L21.9681 10.7994L22.0593 10.7107L22.3811 10.48L22.7054 10.3082L23.0434 10.1912L23.3798 10.1348H23.7064L24.0444 10.1888L24.2905 10.2614L24.5236 10.3566L24.743 10.4744L24.9454 10.6131L25.1302 10.772L25.2947 10.9495L25.4327 11.139L25.5488 11.3447L25.6287 11.5319L25.6892 11.7303L25.7303 11.9303L25.7513 12.1393L25.7561 12.4071L25.7408 12.6402L25.7037 12.8531L25.6416 13.0564L25.5061 13.3339L25.3076 13.609L25.0608 13.8663L24.7946 14.0752L24.5034 14.239L24.2001 14.3495L23.9662 14.3987L23.6209 14.4301L23.2942 14.4188L22.9861 14.364L22.6957 14.2664L22.4739 14.1559L22.2634 14.0179L22.0657 13.851L21.8794 13.6566L21.7173 13.4468L21.5874 13.2307L21.489 13.0072L21.422 12.7765L21.389 12.5563L21.3825 12.3296L21.3777 12.2837L21.3591 12.2514L21.3269 12.2312L21.2809 12.2248H20.6944ZM19.6709 12.553L19.6935 12.3003L19.6648 12.0476L19.5859 11.8046L19.46 11.5807L19.2918 11.3845L19.0877 11.2234L18.8557 11.1038L18.6047 11.0301L18.3442 11.0053L18.0844 11.0302L17.8352 11.104L17.6061 11.2237L17.406 11.3848L17.2425 11.5812L17.122 11.8051L17.0491 12.0482L17.0266 12.3009L17.0553 12.5536L17.1341 12.7966L17.2601 13.0205L17.4283 13.2167L17.6323 13.3778L17.8643 13.4974L18.1154 13.5711L18.3758 13.5959L18.6356 13.571L18.8849 13.4972L19.114 13.3775L19.3141 13.2164L19.4775 13.02L19.598 12.796L19.6709 12.553ZM24.9008 12.3285L24.8802 12.0751L24.8094 11.8306L24.6912 11.6041L24.5301 11.4046L24.3323 11.2395L24.1053 11.1154L23.858 11.0369L23.5998 11.007L23.3407 11.0269L23.0906 11.0959L22.859 11.2113L22.655 11.3686L22.4864 11.5618L22.3595 11.7835L22.2794 12.0252L22.2491 12.2776L22.2697 12.5309L22.3405 12.7755L22.4587 13.0019L22.6198 13.2014L22.8177 13.3665L23.0446 13.4906L23.2919 13.5692L23.5501 13.599L23.8092 13.5791L24.0594 13.5101L24.2909 13.3948L24.4949 13.2375L24.6636 13.0442L24.7904 12.8225L24.8705 12.5808L24.9008 12.3285Z" fill="black"/>
<path d="M11.2575 27.4555L11.2809 27.4378L11.2793 27.4087L11.272 27.3998L11.0381 27.1764L10.9421 27.053L10.8607 26.9223L10.7889 26.7715L10.7332 26.611L10.6945 26.4416L10.6719 26.2633L10.6888 26.1133L10.7526 25.8737L12.0884 21.6437L12.3562 20.8886L12.4836 20.5886L12.6078 20.3417L12.866 19.9207L13.1814 19.4867L13.5653 19.0237L14.0969 18.434L14.1171 18.4123L14.2606 18.2751L14.422 18.1517L14.6067 18.038L14.8196 17.9299L15.0528 17.8331L15.3101 17.7444L15.9167 17.5855L16.2813 17.5395L17.0734 17.4661L17.5711 17.4032L17.9889 17.308L18.3221 17.1829L18.4552 17.1095L18.5705 17.0256L18.6334 16.999L18.7004 17.0111L19.1279 17.2192L19.5619 17.3951L20.0023 17.5403L20.45 17.6532L20.8461 17.7266L21.2478 17.7758L21.6543 17.8008L22.0665 17.8024L22.0955 17.8137L22.1076 17.8428L22.1125 21.1815L22.0996 24.4879L22.1286 24.7936L22.2222 25.1017L22.3763 25.3986L22.5811 25.668L22.8377 25.9116L23.1289 26.11L23.437 26.252L23.758 26.3359L24.0444 26.3504L24.659 26.3561L26.7434 26.3504L26.7926 26.3722L26.8079 26.423L26.8063 26.4319L26.553 27.3845L26.5555 27.4241L26.5893 27.4466L26.7249 27.47L26.8894 27.4773L28.251 27.4668L28.301 27.4458L28.322 27.3958V22.8004L28.3494 22.7342L28.4156 22.7068H30.7556L30.7936 22.7189L30.821 22.7721V27.3756L30.8492 27.4434L30.917 27.4716L36.0053 27.4652L36.1803 27.4757L36.3384 27.5079L36.4796 27.562L36.6046 27.6386L36.7474 27.779L36.8321 27.8992L36.9006 28.0242L36.9523 28.1516L36.9853 28.2799L36.9998 28.4033L36.9958 28.5251L36.9724 28.6421L36.9297 28.7542L36.8684 28.8558L36.7877 28.9494L36.6925 29.0277L36.5796 29.097L36.5336 29.1196L36.2916 29.2011L36.0254 29.2317L34.5162 29.2511L33.5442 29.2406L33.1312 29.2245L31.7881 29.1785L30.8113 29.1648L30.6129 29.1656L27.6364 29.1664L26.4982 29.1817L24.9422 29.2317L24.3888 29.2519L23.6104 29.2462L22.1101 29.2011L20.1935 29.1616L17.5332 29.164L16.3611 29.1688L14.7479 29.2083L13.7629 29.2374H12.4917L10.8574 29.1922L8.81824 29.1599L6.41284 29.1841L6.06759 29.2099L5.87803 29.2083L5.69815 29.1745L5.52795 29.1075L5.36743 29.0075L5.2545 28.9026L5.14964 28.7405L5.08753 28.5421L5.07623 28.3283L5.11415 28.1137L5.19723 27.9113L5.32307 27.7338L5.48359 27.5959L5.66185 27.5104L5.77559 27.4829L5.89739 27.4733L11.0389 27.4644L11.2575 27.4555ZM14.5575 24.5629L14.5163 24.5435L14.5042 24.5L14.5067 24.4919L15.2407 22.3382L15.2318 22.2753L15.0987 22.1043L14.9713 21.9849L14.8503 21.9179L14.7358 21.901L14.6583 21.9163L14.5414 21.9687L14.4534 22.0349L14.3494 22.1809L14.2526 22.4326L14.2203 22.5253L13.4968 24.5863L13.4185 24.892L13.4121 25.0162L13.4282 25.1122L13.4855 25.2348L13.5661 25.33L13.6411 25.3816L13.7283 25.4187L13.8291 25.4405L13.942 25.4478L16.7677 25.4567L16.9952 25.4776L17.2162 25.5284L17.4267 25.6075L17.6227 25.714L17.7945 25.8414L17.9438 25.9931L18.0623 26.1592L18.1535 26.3448L18.2051 26.5142L18.2325 26.6957L18.2656 27.3103L18.2753 27.3627L18.2987 27.4039L18.335 27.4337L18.3858 27.4515L18.6915 27.4829L19.0513 27.4595L19.0981 27.4361L19.1215 27.3886L19.144 27.1159L19.1424 26.84L19.1174 26.5747L19.0666 26.3141L18.9956 26.0762L18.8996 25.8495L18.7851 25.6438L18.6455 25.4534L18.5116 25.3058L18.3689 25.1727L18.1753 25.0251L17.9696 24.9001L17.7437 24.792L17.5074 24.7065L17.2476 24.6379L16.979 24.5911L16.6975 24.5637L16.395 24.5564L14.5575 24.5629Z" fill="black"/>
<path d="M28.1454 21.8436L27.9485 21.8759L27.7848 21.9372L27.6501 22.0316L27.563 22.1461L27.5218 22.2606L27.5113 22.397L27.517 22.5486L27.5194 25.4283L27.513 25.4775L27.492 25.513L27.4565 25.5348L27.4073 25.5421L24.3687 25.5525L24.0242 25.5364L23.7363 25.4808L23.4991 25.3856L23.3039 25.2452L23.241 25.1807L23.1289 25.0355L23.0401 24.879L22.9821 24.7346L22.9409 24.5813L22.9175 24.42L22.9111 24.2506L22.9208 18.6396L22.9199 18.5291L22.928 18.1524L22.9724 17.8903L23.0256 17.7386L23.0942 17.6023L23.1765 17.4813L23.2741 17.3772L23.4209 17.2651L23.5919 17.1796L23.7871 17.1199L24.0065 17.0868L24.4518 17.0667L25.1551 17.061L34.2299 17.0739H34.801L35.051 17.0941L35.314 17.1659L35.5552 17.2812L35.7471 17.4256L35.8633 17.5571L35.9545 17.7015L36.0077 17.8233L36.0456 17.9532L36.0674 18.0911L36.0746 18.2363L36.0633 21.7831L36.0787 24.1708L36.0625 24.4862L36.0037 24.7612L35.9028 24.9952L35.7584 25.1879L35.6003 25.321L35.41 25.4235L35.2285 25.4751L34.9607 25.5122L34.6074 25.5356L34.1685 25.5437L31.7648 25.538L31.726 25.5211L31.7099 25.4824L31.7083 22.9955V22.9511L31.7026 22.6381L31.676 22.4139L31.6244 22.2381L31.5454 22.1017L31.3937 21.9541L31.2227 21.867L31.0589 21.8412L29.1706 21.821L28.1454 21.8436Z" fill="black"/>
<path d="M3.1597 33.0312L3.16938 32.9796L3.19923 32.936L3.24279 32.9062L3.29441 32.8965L5.4554 32.8997L5.72724 32.9126L5.99666 32.9505L6.26124 33.0118L6.51775 33.0973L6.76377 33.2046L6.99689 33.3345L7.21549 33.4845L7.41715 33.6539L7.60026 33.8403L7.76159 34.0427L7.90194 34.2589L8.0181 34.4864L8.10925 34.7227L8.17459 34.9671L8.21411 35.2156L8.22702 35.4664V35.831L8.2125 36.0827L8.17217 36.3312L8.10602 36.5748L8.01326 36.8111L7.8971 37.0386L7.75594 37.254L7.59381 37.4556L7.4107 37.6411L7.20823 37.8097L6.98883 37.9598L6.7549 38.088L6.50887 38.1953L6.25156 38.2792L5.98779 38.3405L5.71756 38.3768L5.44572 38.3881L3.28473 38.3849L3.23311 38.3744L3.18955 38.3453L3.16051 38.301L3.15002 38.2502L3.1597 33.0312ZM4.44226 34.2057L4.4471 37.1273L4.46646 37.1918L4.51728 37.2354L4.56648 37.2459L5.37877 37.2451L5.68771 37.2144L5.98456 37.1257L6.2572 36.9821L6.49678 36.7885L6.69279 36.553L6.83879 36.2844L6.92833 35.994L6.95817 35.6907V35.6326L6.92752 35.3301L6.83637 35.0397L6.69037 34.7711L6.49274 34.5372L6.25317 34.3444L5.97891 34.2016L5.68207 34.1137L5.37393 34.0847L4.56165 34.0855L4.51567 34.0952L4.47695 34.121L4.45113 34.1597L4.44226 34.2057Z" fill="black"/>
<path d="M23.4217 35.4315L22.7901 36.4777L22.3553 37.2359L22.2488 37.3795L22.1206 37.4602L22.0359 37.4787L21.7971 37.4924L21.6172 37.4779L21.4761 37.4303L21.3777 37.3513L21.3511 37.3133L20.3161 35.5815L20.2952 35.5646L20.2774 35.5847L20.1927 35.8566L20.1653 36.0832L20.1709 38.37L20.1532 38.4217L20.1016 38.4386H19.1513L19.0707 38.4273L19.0134 38.3926L18.9787 38.3354L18.9674 38.2555L18.969 33.4624L18.9602 33.2374L18.9327 32.9954L18.9521 32.9212L19.0191 32.8833H19.0223L19.495 32.8623L19.9757 32.8728L20.058 32.8833L20.1225 32.9083L20.1742 32.9502L20.2234 33.0148L20.3823 33.2777L21.1042 34.5554L21.8044 35.742L21.8278 35.7565L21.8528 35.7477L21.8576 35.7412L23.4628 32.9607L23.5266 32.8978L23.6129 32.8744H24.6075L24.6704 32.8865L24.7236 32.922L24.7591 32.9752L24.7712 33.0373V38.2918L24.7478 38.3571L24.6889 38.3934L24.3453 38.4443L24.0033 38.4491L23.779 38.4273L23.5548 38.3862L23.5024 38.3531L23.4822 38.2958V35.4484L23.4669 35.3863L23.4217 35.4315Z" fill="black"/>
<path d="M26.912 37.395L26.5224 38.342L26.4708 38.4033L26.3933 38.4226L25.2197 38.3468H25.2173L25.2076 38.3275L25.8472 36.7102L26.4514 35.2146L27.275 33.127L27.3299 33.023L27.4049 32.9448L27.5154 32.8883L27.6525 32.8673L28.1034 32.8633L28.5253 32.8754L28.6382 32.9133L28.7165 33.0036L28.931 33.4812L29.2255 34.2031L29.4795 34.8258L30.2136 36.5674L30.8581 38.1581L30.9186 38.3743L30.9194 38.3807L30.9057 38.4243L30.8637 38.4428H29.724L29.6667 38.4339L29.6143 38.4081L29.5723 38.3686L29.5433 38.3178L29.1892 37.3797L29.1504 37.3272L29.0875 37.3095H27.0395L26.9628 37.3329L26.912 37.395ZM27.3565 36.1923L27.3629 36.2463L27.4113 36.2721H28.6681L28.7165 36.2463L28.7229 36.1923L28.0945 34.5564L28.0639 34.5242L28.0171 34.5233L27.9848 34.5564L27.3565 36.1923Z" fill="black"/>
<path d="M10.0911 36.2342V37.1595L10.1129 37.2111L10.1645 37.2329H12.7829L12.8216 37.249L12.8377 37.2877V38.2783L12.816 38.338L12.7603 38.3686L12.2795 38.4235L11.7246 38.442L8.94651 38.4396L8.89246 38.4283L8.84729 38.3976L8.81664 38.3517L8.80615 38.2976V33.0133L8.81583 32.9633L8.84406 32.9206L8.88682 32.8915L8.93683 32.8818H12.703L12.7571 32.8899L12.7958 32.9125L12.8192 32.952L12.8273 33.0061V33.9256L12.8264 33.9369L12.8127 33.9821L12.7805 34.0184L12.7369 34.0386L12.6893 34.0394L12.4594 34.0111L12.2086 34.0103L10.1403 34.0958L10.1056 34.1112L10.0919 34.1458V34.9646L10.1186 35.0299L10.1839 35.0565H12.3739L12.4288 35.0678L12.4756 35.0985L12.5062 35.1453L12.5175 35.2001V36.1124L12.4957 36.1641L12.4441 36.185H10.1403L10.1032 36.1971L10.0911 36.2342Z" fill="black"/>
<path d="M15.7683 36.5326L15.807 36.602L15.8376 36.623L15.8602 36.5955L15.8764 36.5213L15.907 36.3923L15.9772 36.1906L16.4951 34.775L17.0928 33.0528L17.1452 32.9794L17.2307 32.9495L18.4286 32.8987L18.4673 32.9148L18.481 32.9544L18.4802 32.9608L18.3608 33.3617L16.5346 38.1354L16.5305 38.1467L16.4338 38.3427L16.3821 38.3992L16.3176 38.4363L16.2014 38.446L15.6957 38.3863L15.1714 38.3589L15.1262 38.3443L15.0971 38.3064L13.1023 33.0294L13.0967 33.0092L13.0983 32.96L13.1217 32.9157L13.1612 32.885L13.2096 32.8745H14.3446L14.4091 32.8947L14.451 32.9487L15.5674 36.0333L15.7683 36.5326Z" fill="black"/>
<path d="M32.982 34.0998L32.936 34.1208L32.9175 34.1676V38.271L32.9054 38.3524L32.8707 38.4097L32.8118 38.4412L32.7303 38.4476L31.7212 38.3823L31.6559 38.3516L31.6293 38.2839V34.1894L31.5986 34.1152L31.5244 34.0845H30.2096L30.1273 34.0724L30.0676 34.0369L30.0321 33.978L30.02 33.8941V33.0496L30.0305 32.9754L30.0628 32.9221L30.116 32.8899L30.1902 32.8794H34.4194L34.4937 32.9044L34.5178 32.9778V33.9619L34.4969 34.0151L34.4444 34.0385L32.982 34.0998Z" fill="black"/>
<path d="M36.3078 36.2247V37.1725L36.3255 37.2152L36.3675 37.233H38.8737L38.9487 37.2435L39.0028 37.2757L39.035 37.3298L39.0455 37.4048V38.3026L39.0334 38.334L39.0028 38.3494L38.2227 38.405L37.3871 38.4365L36.4804 38.447L35.2204 38.4381H35.2083L35.1244 38.4252L35.0647 38.3881L35.0292 38.3284L35.0172 38.2453V32.936L35.0341 32.8949L35.0752 32.8779H38.9068L38.9681 32.8868L39.0124 32.9126L39.0383 32.957L39.0471 33.0183V33.929L39.027 33.9935L38.9681 34.0234L38.7309 34.0556L38.4841 34.0701L36.286 34.0879L36.2416 34.1024L36.2271 34.1468V34.9744L36.2505 35.0317L36.3078 35.0551H38.6059L38.6365 35.068L38.6495 35.0986V36.1126L38.6285 36.1642L38.5769 36.1852H36.3473L36.3175 36.1948L36.3078 36.2247Z" fill="black"/>
</svg>
